# AST/ASF file generated using VICON BodyLanguage
# -----------------------------------------------
:version 1.10
:name VICON
:units
  mass 1.0
  length 0.45
  angle deg
:documentation
   .ast/.asf automatically generated from VICON data using
   VICON BodyBuilder and BodyLanguage model FoxedUp or BRILLIANT.MOD
:root
   order TX TY TZ RX RY RZ
   axis XYZ
   position 0 0 0  
   orientation 0 0 0 
:bonedata
  begin
     id 1 
     name lhipjoint
     direction 0.440178 -0.822639 0.359871 
     length 2.53113 
     axis 0 0 0  XYZ
  end
  begin
     id 2 
     name lfemur
     direction 0.34202 -0.939693 0  
     length 7.88132  
     axis 0 0 20  XYZ
    dof rx ry rz
    limits (-160.0 20.0)
           (-70.0 70.0)
           (-60.0 70.0)
  end
  begin
     id 3 
     name ltibia
     direction 0.34202 -0.939693 0   
     length 8.43783   
     axis 0 0 20   XYZ
    dof rx
    limits (-10.0 170.0)
  end
  begin
     id 4 
     name lfoot
     direction 0.0886351 -0.243523 0.965837   
     length 2.63414   
     axis -90 7.62852e-016 20   XYZ
    dof rx rz
    limits (-45.0 90.0)
           (-70.0 20.0)
  end
  begin
     id 5 
     name ltoes
     direction 1.53703e-011 -4.21717e-011 1   
     length 1.31427   
     axis -90 7.62852e-016 20   XYZ
    dof rx
    limits (-90.0 20.0)
  end
  begin
     id 6 
     name rhipjoint
     direction -0.399779 -0.839773 0.367367   
     length 2.47948  
     axis 0 0 0  XYZ 
  end
  begin
     id 7 
     name rfemur
     direction -0.34202 -0.939693 0   
     length 7.74806   
     axis 0 0 -20   XYZ
    dof rx ry rz
    limits (-160.0 20.0)
           (-70.0 70.0)
           (-70.0 60.0)
  end
  begin
     id 8 
     name rtibia
     direction -0.34202 -0.939693 0   
     length 8.74432   
     axis 0 0 -20   XYZ
    dof rx
    limits (-10.0 170.0)
 end
 begin
     id 9 
     name rfoot
     direction -0.108514 -0.298139 0.948334   
     length 2.66102  
     axis -90 -7.62852e-016 -20   XYZ
    dof rx rz
    limits (-45.0 90.0)
           (-20.0 70.0)
  end
  begin
     id 10 
     name rtoes
     direction -1.53392e-011 -4.22077e-011 1   
     length 1.31983   
     axis -90 -7.62852e-016 -20   XYZ
    dof rx
    limits (-90.0 20.0)
  end
  begin
     id 11 
     name lowerback
     direction 0.0113257 0.999866 0.0118602   
     length 2.58694   
     axis 0 0 0   XYZ
    dof rx ry rz
    limits (-20.0 45.0)
           (-30.0 30.0)
           (-30.0 30.0)
  end
  begin
     id 12 
     name upperback
     direction -0.0164747 0.995193 -0.0965375   
     length 2.52368   
     axis 0 0 0   XYZ
    dof rx ry rz
    limits (-20.0 45.0)
           (-30.0 30.0)
           (-30.0 30.0)
  end
  begin
     id 13 
     name thorax
     direction -0.0194301 0.99433 -0.104552   
     length 2.56099   
     axis 0 0 0   XYZ
    dof rx ry rz
    limits (-20.0 45.0)
           (-30.0 30.0)
           (-30.0 30.0)
  end
  begin
     id 14 
     name lowerneck
     direction 0.0148543 0.995587 -0.092657   
     length 1.71582   
     axis 0 0 0   XYZ
    dof rx ry rz
    limits (-20.0 45.0)
           (-30.0 30.0)
           (-30.0 30.0)
  end
  begin
     id 15 
     name upperneck
     direction -0.0135467 0.993656 -0.111639   
     length 1.68937   
     axis 0 0 0   XYZ
    dof rx ry rz
    limits (-20.0 45.0)
           (-30.0 30.0)
           (-30.0 30.0)
  end
  begin
     id 16
     name head
     direction -0.00615349 0.999547 -0.029448  
     length 1.7462  
     axis 0 0 0   XYZ
    dof rx ry rz
    limits (-20.0 45.0)
           (-30.0 30.0)
           (-30.0 30.0)
  end
  begin
     id 17 
     name lclavicle
     direction 0.988267 0.149885 0.0293713  
     length 4.47222  
     axis 0 0 0   XYZ
    dof ry rz
    limits (-20.0 10.0)
           (0.0 20.0)
  end
  begin
     id 18 
     name lhumerus
     direction 1 -4.48986e-011 -1.14833e-027   
     length 5.37148   
     axis 180 -30 -90   XYZ
    dof rx ry rz
    limits (-60.0 90.0)
           (-90.0 90.0)
           (-90.0 90.0)
  end
  begin
     id 19
     name lradius
     direction 0.999998 0.00170963 -0.000987055   
     length 3.94212   
     axis 180 -30 -90   XYZ
    dof rx
    limits (-10.0 170.0)
  end
  begin
     id 20
     name lwrist
     direction 0.999998 7.53149e-005 -0.00194706   
     length 1.97106   
     axis 4.65056e-015 90 90   XYZ
    dof ry
    limits (-180.0 0.0)
 end
  begin
     id 21 
     name lhand
     direction 1 -4.48973e-011 -1.31746e-026   
     length 1.17917   
     axis 8.4065e-015 90 90   XYZ
    dof rx rz
    limits (-90.0 90.0)
           (-45.0 45.0)
  end
  begin
     id 22 
     name lfingers
     direction 1 -4.49107e-011 -2.63492e-026   
     length 0.950679   
     axis 1.6813e-014 90 90   XYZ
    dof rx
    limits (0.0 90.0)
  end
  begin
     id 23
     name lthumb
     direction 0.707107 -6.35048e-011 0.707107   
     length 1.36499   
     axis -90 45 2.85299e-015   XYZ
    dof rx rz
    limits (-45.0 45.0)
           (-45.0 45.0)
  end
  begin
     id 24 
     name rclavicle
     direction -0.996699 0.0642895 -0.0495725   
     length 4.62611  
     axis 0 0 0   XYZ 
    dof ry rz
    limits (-10.0 20.0)
           (-20.0 0.0)
  end
  begin
     id 25 
     name rhumerus
     direction -1 -4.48919e-011 -2.41059e-027  
     length 5.4981   
     axis 180 30 90   XYZ
    dof rx ry rz
    limits (-90.0 60.0)
           (-90.0 90.0)
           (-90.0 90.0)
  end
  begin
     id 26 
     name rradius
     direction -0.999999 0.00118101 -0.000681858   
     length 3.48381   
     axis 180 30 90   XYZ
    dof rx
    limits (-10.0 170.0)
  end
  begin
     id 27 
     name rwrist
     direction -0.999999 0.000321823 -0.00132288   
     length 1.7419   
     axis 4.65056e-015 -90 -90   XYZ
    dof ry
    limits (-180.0 0.0)
  end
  begin
     id 28
     name rhand
     direction -1 -4.49022e-011 -1.31746e-026   
     length 1.34932   
     axis 8.4065e-015 -90 -90   XYZ
    dof rx rz
    limits (-90.0 90.0)
           (-45.0 45.0)
  end
  begin
     id 29
     name rfingers
     direction -1 -4.49178e-011 -2.63492e-026   
     length 1.08785   
     axis 1.6813e-014 -90 -90   XYZ
    dof rx
    limits (0.0 90.0)
  end
  begin
     id 30
     name rthumb
     direction -0.707107 -6.34713e-011 0.707107   
     length 1.56195   
     axis -90 -45 -2.85299e-015   XYZ
    dof rx rz
    limits (-45.0 45.0)
           (-45.0 45.0)
  end
:hierarchy
  begin
    root lhipjoint rhipjoint lowerback
    lhipjoint lfemur
    lfemur ltibia
    ltibia lfoot
    lfoot ltoes
    rhipjoint rfemur
    rfemur rtibia
    rtibia rfoot
    rfoot rtoes
    lowerback upperback
    upperback thorax
    thorax lowerneck lclavicle rclavicle
    lowerneck upperneck
    upperneck head
    lclavicle lhumerus
    lhumerus lradius
    lradius lwrist
    lwrist lhand lthumb
    lhand lfingers
    rclavicle rhumerus
    rhumerus rradius
    rradius rwrist
    rwrist rhand rthumb
    rhand rfingers
  end

#!OML:ASF X:\für Bonn\!DataBase\2005_08_10_Bjorn_Final\c3d\bjorn.ASF
:FULLY-SPECIFIED
:DEGREES
1
root 4.096 17.3421 -10.2251 1.8953 -4.45507 355.645
lowerback -3.65312 2.41405 6.55127
upperback 9.45531 2.42065 1.85091
thorax 12.5226 1.67224 -1.28276
lowerneck -12.7745 -0.888813 0.961379
upperneck -9.65066 -1.44963 -3.40473
head -0.946742 -0.757145 -1.26479
rclavicle 2.20651e-014 2.38542e-015
rhumerus -46.8966 -24.8329 -78.487
rradius 59.7256
rwrist -23.0828
rhand -13.7473 18.6301
rfingers 7.12502
rthumb 12.3727 -10.9838
lclavicle 2.20651e-014 2.38542e-015
lhumerus -34.2599 11.0966 87.6587
lradius 42.5816
lwrist 12.1525
lhand -22.5985 -15.7155
lfingers 7.12502
lthumb 3.83081 14.2298
rfemur -15.1441 1.95172 22.0148
rtibia 57.0573
rfoot -33.8437 16.2437
rtoes -8.98145
lfemur -27.8961 -4.89321 -11.604
ltibia 65.0275
lfoot -27.8926 3.51179
ltoes -32.7294
2
root 4.1011 17.2917 -10.0744 2.68262 -4.30107 355.373
lowerback -4.14275 2.48562 6.75791
upperback 9.02315 2.4725 1.87905
thorax 12.3378 1.70212 -1.35533
lowerneck -12.9357 -0.927813 1.04895
upperneck -8.99329 -1.49749 -3.50573
head -0.714233 -0.790926 -1.31582
rclavicle -3.67752e-014 -1.78906e-014
rhumerus -42.299 -22.2888 -82.8738
rradius 60.1016
rwrist -21.7317
rhand -12.3124 17.5566
rfingers 7.12502
rthumb 13.756 -11.9687
lclavicle -3.67752e-014 -1.78906e-014
lhumerus -30.8883 9.50487 89.3305
lradius 42.6617
lwrist 10.1665
lhand -20.9412 -15.9265
lfingers 7.12502
lthumb 5.4311 13.9839
rfemur -15.2636 2.29461 22.4885
rtibia 56.9801
rfoot -35.5011 14.4518
rtoes -12.9221
lfemur -28.3941 -5.42734 -11.6325
ltibia 65.6339
lfoot -28.9546 4.98552
ltoes -32.7984
3
root 4.10478 17.272 -9.9201 3.45093 -4.16819 354.98
lowerback -4.61878 2.57211 7.07576
upperback 8.51863 2.53271 1.93968
thorax 12.0694 1.74002 -1.45617
lowerneck -13.1729 -0.986486 1.10641
upperneck -7.91544 -1.55377 -3.56024
head -0.335651 -0.832318 -1.35137
rclavicle 2.78299e-015 -1.07344e-014
rhumerus -38.05 -18.707 -86.9638
rradius 61.0783
rwrist -19.8268
rhand -11.9672 16.5883
rfingers 7.12502
rthumb 14.0886 -12.9141
lclavicle 2.78299e-015 -1.07344e-014
lhumerus -27.69 7.6688 90.7159
lradius 43.0007
lwrist 7.50017
lhand -20.315 -17.0033
lfingers 7.12502
lthumb 6.03572 12.8907
rfemur -15.1976 2.60976 23.0349
rtibia 56.5696
rfoot -36.5784 13.2644
rtoes -15.0078
lfemur -28.6737 -5.90987 -11.5073
ltibia 65.8719
lfoot -29.8864 6.2517
ltoes -32.5728
4
root 4.10729 17.2807 -9.76475 4.13284 -4.10563 354.746
lowerback -5.01139 2.67289 7.22185
upperback 7.95528 2.64546 1.94667
thorax 11.6792 1.78607 -1.51875
lowerneck -13.1278 -1.07797 1.02615
upperneck -6.82032 -1.63067 -3.42248
head 0.00503124 -0.876244 -1.30271
rclavicle -1.2921e-014 5.1684e-015
rhumerus -34.4927 -14.8048 -90.2876
rradius 62.1758
rwrist -17.9934
rhand -11.6137 17.2715
rfingers 7.12502
rthumb 14.4292 -12.2069
lclavicle -1.2921e-014 5.1684e-015
lhumerus -24.7822 5.54224 91.7944
lradius 43.7107
lwrist 4.52084
lhand -20.2003 -18.5196
lfingers 7.12502
lthumb 6.1464 11.3712
rfemur -14.9293 2.92985 23.3373
rtibia 55.8459
rfoot -37.0584 12.8465
rtoes -15.0198
lfemur -28.65 -6.36044 -11.538
ltibia 65.7179
lfoot -30.5994 7.2259
ltoes -31.8213
5
root 4.1084 17.3177 -9.61048 4.65818 -4.07788 354.638
lowerback -5.22537 2.77255 7.24322
upperback 7.36341 2.79266 1.90507
thorax 11.148 1.83695 -1.56949
lowerneck -12.6925 -1.20584 0.85888
upperneck -5.97809 -1.75164 -3.11303
head 0.20208 -0.932516 -1.18142
rclavicle -1.48095e-014 1.90833e-014
rhumerus -31.3694 -10.6686 -93.0323
rradius 63.4093
rwrist -15.7905
rhand -12.2369 17.5103
rfingers 7.12502
rthumb 13.8287 -12.01
lclavicle -1.48095e-014 1.90833e-014
lhumerus -22.1619 3.19909 92.5564
lradius 44.8808
lwrist 1.56137
lhand -20.3016 -21.1695
lfingers 7.12502
lthumb 6.04863 8.72417
rfemur -14.3932 3.23787 23.4922
rtibia 54.8452
rfoot -37.2041 12.5121
rtoes -15.0866
lfemur -28.2308 -6.79633 -11.6551
ltibia 65.1561
lfoot -31.2049 7.65684
ltoes -30.1768
